<svg xmlns="http://www.w3.org/2000/svg" viewBox="0 0 500 500"><defs><style>.cls-1{fill:#a83b94;}.cls-2{fill:#fff;}</style></defs><g id="图层_2" data-name="图层 2"><g id="图层_1-2" data-name="图层 1"><rect class="cls-1" width="500" height="500" rx="88.05"/><path class="cls-2" d="M224.84,406.18a12,12,0,0,1-3.13-.41c-20.19-5.46-43.17-17.7-63-33.59-20.69-16.55-35.29-34.64-41.11-50.94-8.6-24.07-7.49-40.35-7-44.49,1.49-38.29,32-67.14,74.85-103.65,9.77-8.33,19.11-21.26,26.32-36.42,6.52-13.73,8.86-24.4,8.69-27.21a13,13,0,0,1,5.67-13.36c5.09-3.33,11.72-3,21.48,1a117,117,0,0,1,21.61,12.16c12.22,8.57,29.25,23.35,41,45.14a104.33,104.33,0,0,1,11.87,36.48c3.23-2.9,4.92-3.57,5.91-4a12,12,0,0,1,13.67,3.49c2,2.37,48,58.68,48.1,107.81,0,30-13.83,56.52-40.08,76.85-25,19.39-54.57,28-66.11,30.78A12,12,0,0,1,270.5,388c19.16-31.56,11-46.61,10.66-47.24-3.67-6.45-8.86-11.4-14.86-17.13s-13-12.42-19.46-21.72c-4-5.77-7.75-16.61-8.42-28.3-13.81,12.08-25.7,29.27-30.15,43.07-8.79,27.23,7.45,57.62,23,67.41a12,12,0,0,1-6.39,22.1Zm31.82-169.33a12,12,0,0,1,9.26,19.58c-7,8.46-2.48,27.4.58,31.79,5.09,7.32,10.81,12.79,16.35,18.08,6.74,6.44,13.72,13.1,19.12,22.6,2.81,4.93,9.33,20.21,1.3,45.26,26.59-11.09,62.57-33.88,62.52-75.92,0-29.46-22.34-64.78-34.66-82-3.19,3.81-7.52,9.34-13.26,17.31a12,12,0,0,1-21.37-9.74c5.65-24.09,1.25-46.7-13.06-67.2a115.57,115.57,0,0,0-40.68-35.42c-4.85,21-20.56,52.08-41.8,70.18-39.57,33.71-65.58,58-66.46,86.77a8.33,8.33,0,0,1-.13,1.42c-.11,1-1.35,13.73,5.76,33.67,5.74,16.06,25.07,35.62,47.38,50.29-6.2-16.86-7.85-36.13-2-54.16,8.7-27,37.9-62.29,67.5-71.89A12.09,12.09,0,0,1,256.66,236.85ZM122.53,277.73h0Zm97.93-168.12a.15.15,0,0,1,0,.07Z"/></g></g></svg>